<svg xmlns="http://www.w3.org/2000/svg" width="100%" height="100%" viewBox="548.59 445.64 3904.1 2245.27">
<path fill-rule="evenodd" fill="none" fill-opacity="1" d="M 0.640625 0.230469 L 5000.640625 0.230469 L 5000.640625 3136.324219 L 0.640625 3136.324219 L 0.640625 0.230469 "/>
<path fill-rule="nonzero" fill="#eee" fill-opacity="1" d="M 689.953125 445.640625 L 2513.5 445.640625 L 2513.5 2690.914062 L 677.09375 2690.914062 L 677.09375 445.640625 Z M 2487.789062 471.359375 L 702.808594 471.359375 L 702.808594 2665.199219 L 2487.789062 2665.199219 L 2487.789062 471.359375 "/>
<path fill-rule="nonzero" fill="#eee" fill-opacity="1" d="M 677.09375 1390.429688 L 574.308594 1390.429688 L 574.308594 1746.128906 L 677.09375 1746.128906 Z M 561.449219 1364.710938 L 702.808594 1364.710938 L 702.808594 1771.839844 L 548.59375 1771.839844 L 548.59375 1364.710938 L 561.449219 1364.710938 "/>
<path fill-rule="nonzero" fill="#eee" fill-opacity="1" d="M 689.953125 1241.769531 L 936.445312 1241.769531 L 936.445312 1908.230469 L 677.09375 1908.230469 L 677.09375 1241.769531 Z M 910.730469 1267.480469 L 702.808594 1267.480469 L 702.808594 1882.511719 L 910.730469 1882.511719 L 910.730469 1267.480469 "/>
<path fill-rule="nonzero" fill="#eee" fill-opacity="1" d="M 689.953125 863.578125 L 1275.21875 863.578125 L 1275.21875 2272.976562 L 677.09375 2272.976562 L 677.09375 863.578125 Z M 1249.511719 889.289062 L 702.808594 889.289062 L 702.808594 2247.265625 L 1249.511719 2247.265625 L 1249.511719 889.289062 "/>
<path fill-rule="nonzero" fill="#eee" fill-opacity="1" d="M 2500.640625 1117.351562 C 2625.160156 1117.351562 2737.890625 1167.820312 2819.5 1249.421875 C 2901.101562 1331.03125 2951.570312 1443.761719 2951.570312 1568.28125 C 2951.570312 1692.800781 2901.101562 1805.53125 2819.5 1887.128906 C 2737.890625 1968.730469 2625.160156 2019.210938 2500.640625 2019.210938 C 2376.121094 2019.210938 2263.390625 1968.730469 2181.789062 1887.128906 C 2100.191406 1805.53125 2049.710938 1692.800781 2049.710938 1568.28125 C 2049.710938 1443.761719 2100.191406 1331.03125 2181.789062 1249.421875 C 2263.390625 1167.820312 2376.121094 1117.351562 2500.640625 1117.351562 Z M 2801.308594 1267.609375 C 2724.371094 1190.660156 2618.058594 1143.070312 2500.640625 1143.070312 C 2383.21875 1143.070312 2276.921875 1190.660156 2199.96875 1267.609375 C 2123.019531 1344.550781 2075.429688 1450.859375 2075.429688 1568.28125 C 2075.429688 1685.699219 2123.019531 1792 2199.96875 1868.949219 C 2276.921875 1945.898438 2383.21875 1993.488281 2500.640625 1993.488281 C 2618.058594 1993.488281 2724.371094 1945.898438 2801.308594 1868.949219 C 2878.261719 1792 2925.859375 1685.699219 2925.859375 1568.28125 C 2925.859375 1450.859375 2878.261719 1344.550781 2801.308594 1267.609375 "/>
<path fill-rule="evenodd" fill="#eee" fill-opacity="1" d="M 1063.769531 1556.601562 C 1076.679688 1556.601562 1087.140625 1567.058594 1087.140625 1579.960938 C 1087.140625 1592.859375 1076.679688 1603.320312 1063.769531 1603.320312 C 1050.871094 1603.320312 1040.410156 1592.859375 1040.410156 1579.960938 C 1040.410156 1567.058594 1050.871094 1556.601562 1063.769531 1556.601562 "/>
<path fill-rule="nonzero" fill="#eee" fill-opacity="1" d="M 1268.539062 1260.199219 C 1327.460938 1292.710938 1376.710938 1340.578125 1410.871094 1398.410156 C 1443.898438 1454.308594 1462.851562 1519.46875 1462.851562 1589.03125 C 1462.851562 1658.589844 1443.898438 1723.75 1410.871094 1779.648438 C 1376.710938 1837.480469 1327.460938 1885.351562 1268.539062 1917.859375 L 1249.511719 1928.359375 L 1249.511719 1249.691406 Z M 1388.769531 1411.46875 C 1360.691406 1363.941406 1321.691406 1323.628906 1275.21875 1294.011719 L 1275.21875 1884.050781 C 1321.691406 1854.421875 1360.691406 1814.121094 1388.769531 1766.589844 C 1419.5 1714.578125 1437.128906 1653.878906 1437.128906 1589.03125 C 1437.128906 1524.171875 1419.5 1463.480469 1388.769531 1411.46875 "/>
<path fill-rule="nonzero" fill="#eee" fill-opacity="1" d="M 4298.480469 471.359375 L 2513.5 471.359375 L 2513.5 2665.199219 L 4298.480469 2665.199219 Z M 2500.640625 445.640625 L 4324.191406 445.640625 L 4324.191406 2690.914062 L 2487.789062 2690.914062 L 2487.789062 445.640625 L 2500.640625 445.640625 "/>
<path fill-rule="nonzero" fill="#eee" fill-opacity="1" d="M 4311.328125 1364.710938 L 4452.691406 1364.710938 L 4452.691406 1771.839844 L 4298.480469 1771.839844 L 4298.480469 1364.710938 Z M 4426.980469 1390.429688 L 4324.191406 1390.429688 L 4324.191406 1746.128906 L 4426.980469 1746.128906 L 4426.980469 1390.429688 "/>
<path fill-rule="nonzero" fill="#eee" fill-opacity="1" d="M 4298.480469 1267.480469 L 4090.550781 1267.480469 L 4090.550781 1882.511719 L 4298.480469 1882.511719 Z M 4077.699219 1241.769531 L 4324.191406 1241.769531 L 4324.191406 1908.230469 L 4064.839844 1908.230469 L 4064.839844 1241.769531 L 4077.699219 1241.769531 "/>
<path fill-rule="nonzero" fill="#eee" fill-opacity="1" d="M 4298.480469 889.289062 L 3751.78125 889.289062 L 3751.78125 2247.265625 L 4298.480469 2247.265625 Z M 3738.921875 863.578125 L 4324.191406 863.578125 L 4324.191406 2272.976562 L 3726.058594 2272.976562 L 3726.058594 863.578125 L 3738.921875 863.578125 "/>
<path fill-rule="evenodd" fill="#eee" fill-opacity="1" d="M 3937.511719 1556.601562 C 3924.609375 1556.601562 3914.148438 1567.058594 3914.148438 1579.960938 C 3914.148438 1592.859375 3924.609375 1603.320312 3937.511719 1603.320312 C 3950.421875 1603.320312 3960.878906 1592.859375 3960.878906 1579.960938 C 3960.878906 1567.058594 3950.421875 1556.601562 3937.511719 1556.601562 "/>
<path fill-rule="nonzero" fill="#eee" fill-opacity="1" d="M 3726.058594 1294.011719 C 3679.601562 1323.628906 3640.589844 1363.941406 3612.511719 1411.46875 C 3581.789062 1463.480469 3564.148438 1524.171875 3564.148438 1589.03125 C 3564.148438 1653.878906 3581.789062 1714.578125 3612.511719 1766.589844 C 3640.589844 1814.121094 3679.601562 1854.421875 3726.058594 1884.050781 Z M 3590.410156 1398.410156 C 3624.578125 1340.578125 3673.828125 1292.710938 3732.738281 1260.199219 L 3751.78125 1249.691406 L 3751.78125 1928.359375 L 3732.738281 1917.859375 C 3673.828125 1885.351562 3624.578125 1837.480469 3590.410156 1779.648438 C 3557.390625 1723.75 3538.441406 1658.589844 3538.441406 1589.03125 C 3538.441406 1519.46875 3557.390625 1454.308594 3590.410156 1398.410156 "/>
<path fill-rule="nonzero" fill="#eee" fill-opacity="1" d="M 677.09375 2678.054688 L 677.09375 2544.214844 L 689.953125 2544.214844 C 726.910156 2544.214844 760.371094 2559.195312 784.59375 2583.414062 C 808.8125 2607.636719 823.796875 2641.097656 823.796875 2678.054688 L 823.796875 2690.914062 L 677.09375 2690.914062 Z M 702.808594 2570.6875 L 702.808594 2665.199219 L 797.320312 2665.199219 C 794.390625 2640.476562 783.125 2618.3125 766.410156 2601.597656 C 749.695312 2584.882812 727.53125 2573.617188 702.808594 2570.6875 "/>
<path fill-rule="nonzero" fill="#eee" fill-opacity="1" d="M 702.808594 471.359375 L 702.808594 565.871094 C 727.53125 562.941406 749.695312 551.671875 766.410156 534.960938 C 783.125 518.238281 794.390625 496.078125 797.320312 471.359375 Z M 677.09375 579.488281 L 677.09375 445.640625 L 823.796875 445.640625 L 823.796875 458.5 C 823.796875 495.460938 808.8125 528.921875 784.59375 553.140625 C 760.371094 577.359375 726.910156 592.339844 689.953125 592.339844 L 677.09375 592.339844 L 677.09375 579.488281 "/>
<path fill-rule="nonzero" fill="#eee" fill-opacity="1" d="M 4324.191406 458.5 L 4324.191406 592.339844 L 4311.328125 592.339844 C 4274.371094 592.339844 4240.910156 577.359375 4216.691406 553.140625 C 4192.46875 528.921875 4177.488281 495.460938 4177.488281 458.5 L 4177.488281 445.640625 L 4324.191406 445.640625 Z M 4298.480469 565.871094 L 4298.480469 471.359375 L 4203.960938 471.359375 C 4206.890625 496.078125 4218.160156 518.238281 4234.871094 534.960938 C 4251.589844 551.671875 4273.761719 562.941406 4298.480469 565.871094 "/>
<path fill-rule="nonzero" fill="#eee" fill-opacity="1" d="M 4298.480469 2665.199219 L 4298.480469 2570.6875 C 4273.761719 2573.617188 4251.589844 2584.882812 4234.871094 2601.597656 C 4218.160156 2618.3125 4206.890625 2640.476562 4203.960938 2665.199219 Z M 4324.191406 2557.070312 L 4324.191406 2690.914062 L 4177.488281 2690.914062 L 4177.488281 2678.054688 C 4177.488281 2641.097656 4192.46875 2607.636719 4216.691406 2583.414062 C 4240.910156 2559.195312 4274.371094 2544.214844 4311.328125 2544.214844 L 4324.191406 2544.214844 L 4324.191406 2557.070312 "/>
<path fill-rule="evenodd" fill="#eee" fill-opacity="1" d="M 2500.640625 1544.359375 C 2513.851562 1544.359375 2524.558594 1555.070312 2524.558594 1568.28125 C 2524.558594 1581.488281 2513.851562 1592.191406 2500.640625 1592.191406 C 2487.441406 1592.191406 2476.730469 1581.488281 2476.730469 1568.28125 C 2476.730469 1555.070312 2487.441406 1544.359375 2500.640625 1544.359375 "/>
</svg>